<?xml version="1.0" encoding="UTF-8" standalone="no"?>
<!-- Created with Inkscape (http://www.inkscape.org/) -->

<svg
   xmlns:osb="http://www.openswatchbook.org/uri/2009/osb"
   xmlns:dc="http://purl.org/dc/elements/1.1/"
   xmlns:cc="http://creativecommons.org/ns#"
   xmlns:rdf="http://www.w3.org/1999/02/22-rdf-syntax-ns#"
   xmlns:svg="http://www.w3.org/2000/svg"
   xmlns="http://www.w3.org/2000/svg"
   xmlns:xlink="http://www.w3.org/1999/xlink"
   xmlns:sodipodi="http://sodipodi.sourceforge.net/DTD/sodipodi-0.dtd"
   xmlns:inkscape="http://www.inkscape.org/namespaces/inkscape"
   width="1024mm"
   height="768mm"
   viewBox="0 0 1024 768"
   version="1.1"
   id="svg7365"
   inkscape:version="0.92.2 2405546, 2018-03-11"
   sodipodi:docname="1024x768.svg">
  <defs
     id="defs7359">
    <linearGradient
       inkscape:collect="always"
       id="linearGradient1003">
      <stop
         style="stop-color:#2088df;stop-opacity:0.17857143"
         offset="0"
         id="stop999" />
      <stop
         style="stop-color:#2088df;stop-opacity:0.99642855"
         offset="1"
         id="stop1001" />
    </linearGradient>
    <linearGradient
       inkscape:collect="always"
       id="linearGradient995">
      <stop
         style="stop-color:#05d3e2;stop-opacity:1"
         offset="0"
         id="stop991" />
      <stop
         style="stop-color:#0ca5d9;stop-opacity:0"
         offset="1"
         id="stop993" />
    </linearGradient>
    <linearGradient
       inkscape:collect="always"
       id="linearGradient979">
      <stop
         style="stop-color:#0764c0;stop-opacity:1"
         offset="0"
         id="stop975" />
      <stop
         style="stop-color:#0382cc;stop-opacity:1"
         offset="1"
         id="stop977" />
    </linearGradient>
    <linearGradient
       id="linearGradient11239"
       osb:paint="gradient">
      <stop
         style="stop-color:#ff9a00;stop-opacity:1;"
         offset="0"
         id="stop11235" />
      <stop
         style="stop-color:#fc8e37;stop-opacity:0;"
         offset="1"
         id="stop11237" />
    </linearGradient>
    <linearGradient
       inkscape:collect="always"
       xlink:href="#linearGradient995"
       id="linearGradient997-3"
       x1="11.031884"
       y1="-902.93542"
       x2="1474.9276"
       y2="-529.64453"
       gradientUnits="userSpaceOnUse"
       gradientTransform="matrix(2.6889715,0,0,2.6876476,-646.29823,2104.4457)" />
    <linearGradient
       inkscape:collect="always"
       xlink:href="#linearGradient1003"
       id="linearGradient1005-5"
       x1="2052.6287"
       y1="667.63519"
       x2="4486.4517"
       y2="3576.8743"
       gradientUnits="userSpaceOnUse"
       gradientTransform="matrix(0.71145706,0,0,0.71110677,-646.29823,-322.50025)" />
    <linearGradient
       inkscape:collect="always"
       xlink:href="#linearGradient995"
       id="linearGradient989-6"
       x1="1850.9991"
       y1="224.16669"
       x2="1355.4624"
       y2="-434.31378"
       gradientUnits="userSpaceOnUse"
       gradientTransform="matrix(2.6889715,0,0,2.6876476,-646.29823,2104.4457)" />
    <linearGradient
       inkscape:collect="always"
       xlink:href="#linearGradient979"
       id="linearGradient981-2"
       x1="1158.45"
       y1="-899.83508"
       x2="1791.7106"
       y2="-37.868637"
       gradientUnits="userSpaceOnUse"
       gradientTransform="matrix(2.6889807,0,0,2.4188688,-646.29849,2184.2557)" />
  </defs>
  <sodipodi:namedview
     id="base"
     pagecolor="#ffffff"
     bordercolor="#666666"
     borderopacity="1.0"
     inkscape:pageopacity="0.0"
     inkscape:pageshadow="2"
     inkscape:zoom="0.088388348"
     inkscape:cx="1319.7696"
     inkscape:cy="1420.0763"
     inkscape:document-units="mm"
     inkscape:current-layer="layer1"
     showgrid="false"
     inkscape:window-width="1680"
     inkscape:window-height="972"
     inkscape:window-x="1360"
     inkscape:window-y="0"
     inkscape:window-maximized="1" />
  <metadata
     id="metadata7362">
    <rdf:RDF>
      <cc:Work
         rdf:about="">
        <dc:format>image/svg+xml</dc:format>
        <dc:type
           rdf:resource="http://purl.org/dc/dcmitype/StillImage" />
        <dc:title></dc:title>
      </cc:Work>
    </rdf:RDF>
  </metadata>
  <g
     inkscape:label="Layer 1"
     inkscape:groupmode="layer"
     id="layer1"
     transform="translate(0,471)">
    <path
       style="opacity:1;fill:url(#linearGradient981-2);fill-opacity:1;stroke:#808080;stroke-width:0.32838359;stroke-linecap:round;stroke-miterlimit:4;stroke-dasharray:none;stroke-opacity:1"
       d="M 0.94726562 0.171875 C 0.75684211 0.24043393 0.53848306 0.25839194 0.3984375 0.3984375 C 0.15179799 0.64507701 0 0.98725848 0 1.3652344 L 0 2901.3125 C -1.4802974e-16 2901.6905 0.15179799 2902.0327 0.3984375 2902.2793 C 0.53745569 2902.4183 0.75462338 2902.4353 0.94335938 2902.5039 L 3869.293 2902.5039 C 3869.4817 2902.4353 3869.6989 2902.4183 3869.8379 2902.2793 C 3870.0845 2902.0327 3870.2363 2901.6905 3870.2363 2901.3125 L 3870.2363 1.3652344 C 3870.2363 0.98725848 3870.0845 0.64507701 3869.8379 0.3984375 C 3869.6978 0.25839194 3869.4795 0.24043393 3869.2891 0.171875 L 0.94726562 0.171875 z "
       id="rect907-2"
       transform="matrix(0.26458333,0,0,0.26458333,0,-471)" />
    <path
       style="opacity:1;fill:url(#linearGradient989-6);fill-opacity:1;stroke:#808080;stroke-width:0.34614712;stroke-linecap:round;stroke-miterlimit:4;stroke-dasharray:none;stroke-opacity:1"
       d="M 3870.1426 2901.541 C 3870.1588 2901.4566 3870.2363 2901.4018 3870.2363 2901.3125 L 3870.2363 1659.3125 A 5675.582 5672.7874 0 0 1 3776.2891 1741.8027 A 5675.582 5672.7874 0 0 1 3314.8223 2071.6426 A 5675.582 5672.7874 0 0 1 2822.7129 2353.7852 A 5675.582 5672.7874 0 0 1 2304.8828 2585.416 A 5675.582 5672.7874 0 0 1 1766.5039 2764.2168 A 5675.582 5672.7874 0 0 1 1432.0977 2839.2383 C 1335.0648 2865.3174 1246.3785 2886.2485 1168.8262 2901.541 L 3870.1426 2901.541 z "
       id="path870"
       transform="matrix(0.26458333,0,0,0.26458333,0,-471)" />
    <path
       style="opacity:1;fill:url(#linearGradient1005-5);fill-opacity:1;stroke:#808080;stroke-width:0.34614712;stroke-linecap:round;stroke-miterlimit:4;stroke-dasharray:none;stroke-opacity:1"
       d="M 0 314.43359 L 0 2901.3125 C -1.4802974e-16 2901.6905 0.15179799 2902.0327 0.3984375 2902.2793 C 0.53745569 2902.4183 0.75462338 2902.4353 0.94335938 2902.5039 L 3280.1465 2902.5039 A 2700.5126 2699.183 0 0 0 3274.9551 2755.9941 A 2700.5126 2699.183 0 0 0 3242.4277 2488.1543 A 2700.5126 2699.183 0 0 0 3183.3086 2224.8965 A 2700.5126 2699.183 0 0 0 3098.1914 1968.8555 A 2700.5126 2699.183 0 0 0 2987.9238 1722.5879 A 2700.5126 2699.183 0 0 0 2853.6094 1488.5508 A 2700.5126 2699.183 0 0 0 2696.5918 1269.0859 A 2700.5126 2699.183 0 0 0 2518.4355 1066.3867 A 2700.5126 2699.183 0 0 0 2320.9258 882.47656 A 2700.5126 2699.183 0 0 0 2106.0312 719.19336 A 2700.5126 2699.183 0 0 0 1875.9023 578.16992 A 2700.5126 2699.183 0 0 0 1632.8359 460.8125 A 2700.5126 2699.183 0 0 0 1379.2637 368.29688 A 2700.5126 2699.183 0 0 0 1117.7168 301.54688 A 2700.5126 2699.183 0 0 0 850.80859 261.22656 A 2700.5126 2699.183 0 0 0 581.20703 247.74219 A 2700.5126 2699.183 0 0 0 390.17969 254.50586 A 2700.5126 2699.183 0 0 0 122.20898 287.01758 A 2700.5126 2699.183 0 0 0 0 314.43359 z "
       id="path860"
       transform="matrix(0.26458333,0,0,0.26458333,0,-471)" />
    <path
       style="opacity:1;fill:url(#linearGradient997-3);fill-opacity:1;stroke:#808080;stroke-width:0.34614712;stroke-linecap:round;stroke-miterlimit:4;stroke-dasharray:none;stroke-opacity:1"
       d="M 0.94335938 0.17382812 C 0.75462338 0.24248098 0.53745569 0.25941931 0.3984375 0.3984375 C 0.15179799 0.64507701 0 0.98725848 0 1.3652344 L 0 2901.3125 C 1.4802974e-16 2901.6905 0.15179799 2902.0327 0.3984375 2902.2793 C 0.53745569 2902.4183 0.75462338 2902.4353 0.94335938 2902.5039 L 2109.1758 2902.5039 A 1722.5324 1721.6844 0 0 1 1972.9414 2836.7266 A 1722.5324 1721.6844 0 0 1 1826.1504 2746.7754 A 1722.5324 1721.6844 0 0 1 1689.0801 2642.623 A 1722.5324 1721.6844 0 0 1 1563.0977 2525.3164 A 1722.5324 1721.6844 0 0 1 1449.4609 2396.0234 A 1722.5324 1721.6844 0 0 1 1349.3047 2256.0371 A 1722.5324 1721.6844 0 0 1 1263.6328 2106.7559 A 1722.5324 1721.6844 0 0 1 1193.2988 1949.6719 A 1722.5324 1721.6844 0 0 1 1139.0059 1786.3555 A 1722.5324 1721.6844 0 0 1 1101.2969 1618.4375 A 1722.5324 1721.6844 0 0 1 1080.5488 1447.5957 A 1722.5324 1721.6844 0 0 1 1076.2344 1325.8066 A 1722.5324 1721.6844 0 0 1 1084.8398 1153.9258 A 1722.5324 1721.6844 0 0 1 1110.5703 983.76172 A 1722.5324 1721.6844 0 0 1 1153.168 817.01367 A 1722.5324 1721.6844 0 0 1 1212.209 655.35156 A 1722.5324 1721.6844 0 0 1 1287.1016 500.38867 A 1722.5324 1721.6844 0 0 1 1377.0996 353.67188 A 1722.5324 1721.6844 0 0 1 1481.3008 216.66797 A 1722.5324 1721.6844 0 0 1 1598.666 90.746094 A 1722.5324 1721.6844 0 0 1 1701.8203 0.17382812 L 0.94335938 0.17382812 z "
       id="path865"
       transform="matrix(0.26458333,0,0,0.26458333,0,-471)" />
  </g>
</svg>
