<?xml version="1.0" encoding="UTF-8" standalone="no"?>
<!-- Created with Inkscape (http://www.inkscape.org/) -->

<svg
   xmlns:osb="http://www.openswatchbook.org/uri/2009/osb"
   xmlns:dc="http://purl.org/dc/elements/1.1/"
   xmlns:cc="http://creativecommons.org/ns#"
   xmlns:rdf="http://www.w3.org/1999/02/22-rdf-syntax-ns#"
   xmlns:svg="http://www.w3.org/2000/svg"
   xmlns="http://www.w3.org/2000/svg"
   xmlns:xlink="http://www.w3.org/1999/xlink"
   xmlns:sodipodi="http://sodipodi.sourceforge.net/DTD/sodipodi-0.dtd"
   xmlns:inkscape="http://www.inkscape.org/namespaces/inkscape"
   width="1920mm"
   height="1080mm"
   viewBox="0 0 1920 1080"
   version="1.1"
   id="svg7365"
   inkscape:version="0.92.2 2405546, 2018-03-11"
   sodipodi:docname="1920x1080.svg">
  <defs
     id="defs7359">
    <linearGradient
       inkscape:collect="always"
       id="linearGradient1003">
      <stop
         style="stop-color:#2088df;stop-opacity:0.17857143"
         offset="0"
         id="stop999" />
      <stop
         style="stop-color:#2088df;stop-opacity:0.99642855"
         offset="1"
         id="stop1001" />
    </linearGradient>
    <linearGradient
       inkscape:collect="always"
       id="linearGradient995">
      <stop
         style="stop-color:#05d3e2;stop-opacity:1"
         offset="0"
         id="stop991" />
      <stop
         style="stop-color:#0ca5d9;stop-opacity:0"
         offset="1"
         id="stop993" />
    </linearGradient>
    <linearGradient
       inkscape:collect="always"
       id="linearGradient979">
      <stop
         style="stop-color:#0764c0;stop-opacity:1"
         offset="0"
         id="stop975" />
      <stop
         style="stop-color:#0382cc;stop-opacity:1"
         offset="1"
         id="stop977" />
    </linearGradient>
    <linearGradient
       id="linearGradient11239"
       osb:paint="gradient">
      <stop
         style="stop-color:#ff9a00;stop-opacity:1;"
         offset="0"
         id="stop11235" />
      <stop
         style="stop-color:#fc8e37;stop-opacity:0;"
         offset="1"
         id="stop11237" />
    </linearGradient>
    <linearGradient
       inkscape:collect="always"
       xlink:href="#linearGradient979"
       id="linearGradient981"
       x1="1158.45"
       y1="-899.83508"
       x2="1791.7106"
       y2="-37.868637"
       gradientUnits="userSpaceOnUse"
       gradientTransform="matrix(1.0000034,0,0,0.89999479,-8.9807811e-6,29.695114)" />
    <linearGradient
       inkscape:collect="always"
       xlink:href="#linearGradient995"
       id="linearGradient989"
       x1="1850.9991"
       y1="224.16669"
       x2="1355.4624"
       y2="-434.31378"
       gradientUnits="userSpaceOnUse"
       gradientTransform="matrix(3.7795276,0,0,3.7795276,0,2959.3701)" />
    <linearGradient
       inkscape:collect="always"
       xlink:href="#linearGradient995"
       id="linearGradient997"
       x1="11.031884"
       y1="-902.93542"
       x2="1474.9276"
       y2="-529.64453"
       gradientUnits="userSpaceOnUse"
       gradientTransform="matrix(3.7795276,0,0,3.7795276,0,2959.3701)" />
    <linearGradient
       inkscape:collect="always"
       xlink:href="#linearGradient1003"
       id="linearGradient1005"
       x1="2052.6287"
       y1="667.63519"
       x2="4486.4517"
       y2="3576.8743"
       gradientUnits="userSpaceOnUse"
       gradientTransform="translate(0,-453.5433)" />
  </defs>
  <sodipodi:namedview
     id="base"
     pagecolor="#ffffff"
     bordercolor="#666666"
     borderopacity="1.0"
     inkscape:pageopacity="0.0"
     inkscape:pageshadow="2"
     inkscape:zoom="0.0625"
     inkscape:cx="2430.1852"
     inkscape:cy="1831.9902"
     inkscape:document-units="mm"
     inkscape:current-layer="layer1"
     showgrid="false"
     inkscape:window-width="1680"
     inkscape:window-height="972"
     inkscape:window-x="1360"
     inkscape:window-y="0"
     inkscape:window-maximized="1" />
  <metadata
     id="metadata7362">
    <rdf:RDF>
      <cc:Work
         rdf:about="">
        <dc:format>image/svg+xml</dc:format>
        <dc:type
           rdf:resource="http://purl.org/dc/dcmitype/StillImage" />
        <dc:title />
      </cc:Work>
    </rdf:RDF>
  </metadata>
  <g
     inkscape:label="Layer 1"
     inkscape:groupmode="layer"
     id="layer1"
     transform="translate(0,783)">
    <rect
       style="opacity:1;fill:url(#linearGradient981);fill-opacity:1;stroke:#808080;stroke-width:0.12215245;stroke-linecap:round;stroke-miterlimit:4;stroke-dasharray:none;stroke-opacity:1"
       id="rect907"
       width="1919.8778"
       height="1079.8778"
       x="0.064322181"
       y="-782.94226"
       ry="2.1088777" />
    <path
       style="opacity:1;fill:url(#linearGradient989);fill-opacity:1;stroke:#808080;stroke-width:0.48665252;stroke-linecap:round;stroke-miterlimit:4;stroke-dasharray:none;stroke-opacity:1"
       d="M 2921.3223 3992.6797 C 2784.936 4029.3537 2660.2821 4058.7878 2551.2773 4080.293 L 7244.4805 4080.293 C 7249.3871 4080.293 7253.3359 4076.3419 7253.3359 4071.4355 L 7253.3359 1452.9453 A 7977.4062 7977.4062 0 0 1 6815.3184 1923.125 A 7977.4062 7977.4062 0 0 1 6216.2402 2449.4004 A 7977.4062 7977.4062 0 0 1 5567.6172 2913.2402 A 7977.4062 7977.4062 0 0 1 4875.9258 3310.0059 A 7977.4062 7977.4062 0 0 1 4148.0801 3635.7383 A 7977.4062 7977.4062 0 0 1 3391.3535 3887.1777 A 7977.4062 7977.4062 0 0 1 2921.3223 3992.6797 z "
       id="path870"
       transform="matrix(0.26458333,0,0,0.26458333,0,-783)" />
    <path
       style="opacity:1;fill:url(#linearGradient1005);fill-opacity:1;stroke:#808080;stroke-width:0.48665252;stroke-linecap:round;stroke-miterlimit:4;stroke-dasharray:none;stroke-opacity:1"
       d="M 5518.877 4081.6465 A 3795.7493 3795.7493 0 0 0 5511.582 3875.6152 A 3795.7493 3795.7493 0 0 0 5465.8613 3498.9629 A 3795.7493 3795.7493 0 0 0 5382.7656 3128.7559 A 3795.7493 3795.7493 0 0 0 5263.127 2768.6953 A 3795.7493 3795.7493 0 0 0 5108.1406 2422.3789 A 3795.7493 3795.7493 0 0 0 4919.3535 2093.2637 A 3795.7493 3795.7493 0 0 0 4698.6523 1784.6387 A 3795.7493 3795.7493 0 0 0 4448.2441 1499.5918 A 3795.7493 3795.7493 0 0 0 4170.6289 1240.9668 A 3795.7493 3795.7493 0 0 0 3868.582 1011.3477 A 3795.7493 3795.7493 0 0 0 3545.1191 813.03125 A 3795.7493 3795.7493 0 0 0 3203.4746 647.99805 A 3795.7493 3795.7493 0 0 0 2847.0605 517.89648 A 3795.7493 3795.7493 0 0 0 2479.4395 424.02734 A 3795.7493 3795.7493 0 0 0 2104.2832 367.32812 A 3795.7493 3795.7493 0 0 0 1725.3398 348.36523 A 3795.7493 3795.7493 0 0 0 1456.8398 357.875 A 3795.7493 3795.7493 0 0 0 1080.1875 403.5957 A 3795.7493 3795.7493 0 0 0 709.98242 486.68945 A 3795.7493 3795.7493 0 0 0 349.92188 606.32812 A 3795.7493 3795.7493 0 0 0 3.6035156 761.31641 A 3795.7493 3795.7493 0 0 0 0.2421875 763.24414 L 0.2421875 4072.791 C 0.2421875 4077.6973 4.1932576 4081.6465 9.0996094 4081.6465 L 5518.877 4081.6465 z "
       id="path860"
       transform="matrix(0.26458333,0,0,0.26458333,0,-783)" />
    <path
       style="opacity:1;fill:url(#linearGradient997);fill-opacity:1;stroke:#808080;stroke-width:0.48665252;stroke-linecap:round;stroke-miterlimit:4;stroke-dasharray:none;stroke-opacity:1"
       d="M 3300.4355 0.21875 L 0.2421875 0.21875 L 0.2421875 4072.791 C 0.2421875 4077.6973 4.1932572 4081.6465 9.0996094 4081.6465 L 3873.002 4081.6465 A 2421.1334 2421.1334 0 0 1 3681.5137 3989.1465 A 2421.1334 2421.1334 0 0 1 3475.1914 3862.6504 A 2421.1334 2421.1334 0 0 1 3282.5293 3716.1875 A 2421.1334 2421.1334 0 0 1 3105.4512 3551.2227 A 2421.1334 2421.1334 0 0 1 2945.7285 3369.4043 A 2421.1334 2421.1334 0 0 1 2804.9531 3172.5469 A 2421.1334 2421.1334 0 0 1 2684.5352 2962.6191 A 2421.1334 2421.1334 0 0 1 2585.6758 2741.7188 A 2421.1334 2421.1334 0 0 1 2509.3633 2512.0527 A 2421.1334 2421.1334 0 0 1 2456.3613 2275.916 A 2421.1334 2421.1334 0 0 1 2427.1992 2035.668 A 2421.1334 2421.1334 0 0 1 2421.1328 1864.4023 A 2421.1334 2421.1334 0 0 1 2433.2285 1622.6934 A 2421.1334 2421.1334 0 0 1 2469.3945 1383.3984 A 2421.1334 2421.1334 0 0 1 2529.2695 1148.9082 A 2421.1334 2421.1334 0 0 1 2612.2559 921.56836 A 2421.1334 2421.1334 0 0 1 2717.5215 703.65039 A 2421.1334 2421.1334 0 0 1 2844.0195 497.32812 A 2421.1334 2421.1334 0 0 1 2990.4824 304.66602 A 2421.1334 2421.1334 0 0 1 3155.4473 127.58789 A 2421.1334 2421.1334 0 0 1 3300.4355 0.21875 z "
       id="path865"
       transform="matrix(0.26458333,0,0,0.26458333,0,-783)" />
  </g>
</svg>
