<?xml version="1.0" encoding="UTF-8" standalone="no"?>
<!-- Created with Inkscape (http://www.inkscape.org/) -->

<svg
   xmlns:osb="http://www.openswatchbook.org/uri/2009/osb"
   xmlns:dc="http://purl.org/dc/elements/1.1/"
   xmlns:cc="http://creativecommons.org/ns#"
   xmlns:rdf="http://www.w3.org/1999/02/22-rdf-syntax-ns#"
   xmlns:svg="http://www.w3.org/2000/svg"
   xmlns="http://www.w3.org/2000/svg"
   xmlns:xlink="http://www.w3.org/1999/xlink"
   xmlns:sodipodi="http://sodipodi.sourceforge.net/DTD/sodipodi-0.dtd"
   xmlns:inkscape="http://www.inkscape.org/namespaces/inkscape"
   width="800mm"
   height="600mm"
   viewBox="0 0 800 600"
   version="1.1"
   id="svg7365"
   inkscape:version="0.92.2 2405546, 2018-03-11"
   sodipodi:docname="800x600.svg">
  <defs
     id="defs7359">
    <linearGradient
       inkscape:collect="always"
       id="linearGradient1003">
      <stop
         style="stop-color:#2088df;stop-opacity:0.17857143"
         offset="0"
         id="stop999" />
      <stop
         style="stop-color:#2088df;stop-opacity:0.99642855"
         offset="1"
         id="stop1001" />
    </linearGradient>
    <linearGradient
       inkscape:collect="always"
       id="linearGradient995">
      <stop
         style="stop-color:#05d3e2;stop-opacity:1"
         offset="0"
         id="stop991" />
      <stop
         style="stop-color:#0ca5d9;stop-opacity:0"
         offset="1"
         id="stop993" />
    </linearGradient>
    <linearGradient
       inkscape:collect="always"
       id="linearGradient979">
      <stop
         style="stop-color:#0764c0;stop-opacity:1"
         offset="0"
         id="stop975" />
      <stop
         style="stop-color:#0382cc;stop-opacity:1"
         offset="1"
         id="stop977" />
    </linearGradient>
    <linearGradient
       id="linearGradient11239"
       osb:paint="gradient">
      <stop
         style="stop-color:#ff9a00;stop-opacity:1;"
         offset="0"
         id="stop11235" />
      <stop
         style="stop-color:#fc8e37;stop-opacity:0;"
         offset="1"
         id="stop11237" />
    </linearGradient>
    <linearGradient
       inkscape:collect="always"
       xlink:href="#linearGradient995"
       id="linearGradient997-3"
       x1="11.031884"
       y1="-902.93542"
       x2="1474.9276"
       y2="-529.64453"
       gradientUnits="userSpaceOnUse"
       gradientTransform="matrix(2.100759,0,0,2.0997248,-504.9205,1644.0982)" />
    <linearGradient
       inkscape:collect="always"
       xlink:href="#linearGradient1003"
       id="linearGradient1005-5"
       x1="2052.6287"
       y1="667.63519"
       x2="4486.4517"
       y2="3576.8743"
       gradientUnits="userSpaceOnUse"
       gradientTransform="matrix(0.55582583,0,0,0.55555219,-504.9205,-251.95336)" />
    <linearGradient
       inkscape:collect="always"
       xlink:href="#linearGradient995"
       id="linearGradient989-6"
       x1="1850.9991"
       y1="224.16669"
       x2="1355.4624"
       y2="-434.31378"
       gradientUnits="userSpaceOnUse"
       gradientTransform="matrix(2.100759,0,0,2.0997248,-504.9205,1644.0982)" />
    <linearGradient
       inkscape:collect="always"
       xlink:href="#linearGradient979"
       id="linearGradient981-2"
       x1="1158.45"
       y1="-899.83508"
       x2="1791.7106"
       y2="-37.868637"
       gradientUnits="userSpaceOnUse"
       gradientTransform="matrix(2.1007662,0,0,1.8897413,-504.92073,1706.4498)" />
  </defs>
  <sodipodi:namedview
     id="base"
     pagecolor="#ffffff"
     bordercolor="#666666"
     borderopacity="1.0"
     inkscape:pageopacity="0.0"
     inkscape:pageshadow="2"
     inkscape:zoom="0.088388348"
     inkscape:cx="864.60259"
     inkscape:cy="2183.1055"
     inkscape:document-units="mm"
     inkscape:current-layer="layer1"
     showgrid="false"
     inkscape:window-width="1680"
     inkscape:window-height="972"
     inkscape:window-x="1360"
     inkscape:window-y="0"
     inkscape:window-maximized="1" />
  <metadata
     id="metadata7362">
    <rdf:RDF>
      <cc:Work
         rdf:about="">
        <dc:format>image/svg+xml</dc:format>
        <dc:type
           rdf:resource="http://purl.org/dc/dcmitype/StillImage" />
        <dc:title></dc:title>
      </cc:Work>
    </rdf:RDF>
  </metadata>
  <g
     inkscape:label="Layer 1"
     inkscape:groupmode="layer"
     id="layer1"
     transform="translate(0,303)">
    <path
       style="opacity:1;fill:url(#linearGradient981-2);fill-opacity:1;stroke:#808080;stroke-width:0.25654969;stroke-linecap:round;stroke-miterlimit:4;stroke-dasharray:none;stroke-opacity:1"
       d="M 1.1660156 0.13476562 C 0.90194594 0.20180825 0.62184236 0.24925139 0.43554688 0.43554688 C 0.16559878 0.70549497 0 1.0804442 0 1.4941406 L 0 2266.2227 C -1.4802974e-16 2266.6364 0.16559878 2267.0093 0.43554688 2267.2793 C 0.62232233 2267.4661 0.90307155 2267.5152 1.1679688 2267.582 L 3022.4551 2267.582 C 3022.7197 2267.5151 3022.9989 2267.4659 3023.1855 2267.2793 C 3023.4555 2267.0093 3023.6211 2266.6364 3023.6211 2266.2227 L 3023.6211 1.4941406 C 3023.6211 1.0804442 3023.4555 0.70549497 3023.1855 0.43554688 C 3022.999 0.24895701 3022.7197 0.20169257 3022.4551 0.13476562 L 1.1660156 0.13476562 z "
       id="rect907-2"
       transform="matrix(0.26458333,0,0,0.26458333,0,-303)" />
    <path
       style="opacity:1;fill:url(#linearGradient989-6);fill-opacity:1;stroke:#808080;stroke-width:0.27042744;stroke-linecap:round;stroke-miterlimit:4;stroke-dasharray:none;stroke-opacity:1"
       d="M 3023.3711 2266.8301 C 3023.4691 2266.6309 3023.6211 2266.4604 3023.6211 2266.2227 L 3023.6211 1296.3398 A 4434.0484 4431.8653 0 0 1 2950.2266 1360.7832 A 4434.0484 4431.8653 0 0 1 2589.7051 1618.4707 A 4434.0484 4431.8653 0 0 1 2205.2441 1838.8945 A 4434.0484 4431.8653 0 0 1 1800.6895 2019.8555 A 4434.0484 4431.8653 0 0 1 1380.082 2159.543 A 4434.0484 4431.8653 0 0 1 1118.8262 2218.1562 C 1043.0192 2238.5305 973.73232 2254.8828 913.14453 2266.8301 L 3023.3711 2266.8301 z "
       id="path870"
       transform="matrix(0.26458333,0,0,0.26458333,0,-303)" />
    <path
       style="opacity:1;fill:url(#linearGradient1005-5);fill-opacity:1;stroke:#808080;stroke-width:0.27042744;stroke-linecap:round;stroke-miterlimit:4;stroke-dasharray:none;stroke-opacity:1"
       d="M 0 245.65039 L 0 2266.2227 C 7.4014868e-17 2266.6364 0.16559878 2267.0093 0.43554688 2267.2793 C 0.62232233 2267.4661 0.90307155 2267.5152 1.1679688 2267.582 L 2562.6133 2267.582 A 2109.7755 2108.7368 0 0 0 2558.5586 2153.1211 A 2109.7755 2108.7368 0 0 0 2533.1465 1943.8711 A 2109.7755 2108.7368 0 0 0 2486.959 1738.2012 A 2109.7755 2108.7368 0 0 0 2420.4609 1538.168 A 2109.7755 2108.7368 0 0 0 2334.3164 1345.7715 A 2109.7755 2108.7368 0 0 0 2229.3828 1162.9316 A 2109.7755 2108.7368 0 0 0 2106.7109 991.47461 A 2109.7755 2108.7368 0 0 0 1967.5273 833.11523 A 2109.7755 2108.7368 0 0 0 1813.2227 689.43555 A 2109.7755 2108.7368 0 0 0 1645.3379 561.87109 A 2109.7755 2108.7368 0 0 0 1465.5488 451.69531 A 2109.7755 2108.7368 0 0 0 1275.6523 360.00977 A 2109.7755 2108.7368 0 0 0 1077.5488 287.73242 A 2109.7755 2108.7368 0 0 0 873.2168 235.58203 A 2109.7755 2108.7368 0 0 0 664.69336 204.08398 A 2109.7755 2108.7368 0 0 0 454.06836 193.54883 A 2109.7755 2108.7368 0 0 0 304.82812 198.83203 A 2109.7755 2108.7368 0 0 0 95.474609 224.23242 A 2109.7755 2108.7368 0 0 0 0 245.65039 z "
       id="path860"
       transform="matrix(0.26458333,0,0,0.26458333,0,-303)" />
    <path
       style="opacity:1;fill:url(#linearGradient997-3);fill-opacity:1;stroke:#808080;stroke-width:0.27042744;stroke-linecap:round;stroke-miterlimit:4;stroke-dasharray:none;stroke-opacity:1"
       d="M 1.1660156 0.13476562 C 0.90194594 0.20180825 0.62184236 0.24925139 0.43554688 0.43554688 C 0.16559878 0.70549497 0 1.0804442 0 1.4941406 L 0 2266.2227 C 7.4014868e-17 2266.6364 0.16559878 2267.0093 0.43554688 2267.2793 C 0.62232233 2267.4661 0.90307155 2267.5152 1.1679688 2267.582 L 1647.7949 2267.582 A 1345.7285 1345.0659 0 0 1 1541.3594 2216.1934 A 1345.7285 1345.0659 0 0 1 1426.6797 2145.918 A 1345.7285 1345.0659 0 0 1 1319.5938 2064.5508 A 1345.7285 1345.0659 0 0 1 1221.1699 1972.9023 A 1345.7285 1345.0659 0 0 1 1132.3906 1871.8945 A 1345.7285 1345.0659 0 0 1 1054.1445 1762.5293 A 1345.7285 1345.0659 0 0 1 987.21289 1645.9023 A 1345.7285 1345.0659 0 0 1 932.26562 1523.1816 A 1345.7285 1345.0659 0 0 1 889.84766 1395.5898 A 1345.7285 1345.0659 0 0 1 860.38867 1264.4043 A 1345.7285 1345.0659 0 0 1 844.17969 1130.9336 A 1345.7285 1345.0659 0 0 1 840.80664 1035.7871 A 1345.7285 1345.0659 0 0 1 847.53125 901.50391 A 1345.7285 1345.0659 0 0 1 867.63281 768.56445 A 1345.7285 1345.0659 0 0 1 900.91211 638.29297 A 1345.7285 1345.0659 0 0 1 947.03906 511.99219 A 1345.7285 1345.0659 0 0 1 1005.5488 390.92773 A 1345.7285 1345.0659 0 0 1 1075.8594 276.30469 A 1345.7285 1345.0659 0 0 1 1157.2676 169.27148 A 1345.7285 1345.0659 0 0 1 1248.959 70.894531 A 1345.7285 1345.0659 0 0 1 1329.5469 0.13476562 L 1.1660156 0.13476562 z "
       id="path865"
       transform="matrix(0.26458333,0,0,0.26458333,0,-303)" />
  </g>
</svg>
