<?xml version="1.0" encoding="UTF-8" standalone="no"?>
<!-- Created with Inkscape (http://www.inkscape.org/) -->

<svg
   xmlns:osb="http://www.openswatchbook.org/uri/2009/osb"
   xmlns:dc="http://purl.org/dc/elements/1.1/"
   xmlns:cc="http://creativecommons.org/ns#"
   xmlns:rdf="http://www.w3.org/1999/02/22-rdf-syntax-ns#"
   xmlns:svg="http://www.w3.org/2000/svg"
   xmlns="http://www.w3.org/2000/svg"
   xmlns:xlink="http://www.w3.org/1999/xlink"
   xmlns:sodipodi="http://sodipodi.sourceforge.net/DTD/sodipodi-0.dtd"
   xmlns:inkscape="http://www.inkscape.org/namespaces/inkscape"
   width="800mm"
   height="480mm"
   viewBox="0 0 800 480"
   version="1.1"
   id="svg7365"
   inkscape:version="0.92.2 2405546, 2018-03-11"
   sodipodi:docname="800x480.svg">
  <defs
     id="defs7359">
    <linearGradient
       inkscape:collect="always"
       id="linearGradient1003">
      <stop
         style="stop-color:#2088df;stop-opacity:0.17857143"
         offset="0"
         id="stop999" />
      <stop
         style="stop-color:#2088df;stop-opacity:0.99642855"
         offset="1"
         id="stop1001" />
    </linearGradient>
    <linearGradient
       inkscape:collect="always"
       id="linearGradient995">
      <stop
         style="stop-color:#05d3e2;stop-opacity:1"
         offset="0"
         id="stop991" />
      <stop
         style="stop-color:#0ca5d9;stop-opacity:0"
         offset="1"
         id="stop993" />
    </linearGradient>
    <linearGradient
       inkscape:collect="always"
       id="linearGradient979">
      <stop
         style="stop-color:#0764c0;stop-opacity:1"
         offset="0"
         id="stop975" />
      <stop
         style="stop-color:#0382cc;stop-opacity:1"
         offset="1"
         id="stop977" />
    </linearGradient>
    <linearGradient
       id="linearGradient11239"
       osb:paint="gradient">
      <stop
         style="stop-color:#ff9a00;stop-opacity:1;"
         offset="0"
         id="stop11235" />
      <stop
         style="stop-color:#fc8e37;stop-opacity:0;"
         offset="1"
         id="stop11237" />
    </linearGradient>
    <linearGradient
       inkscape:collect="always"
       xlink:href="#linearGradient995"
       id="linearGradient997-3"
       x1="11.031884"
       y1="-902.93542"
       x2="1474.9276"
       y2="-529.64453"
       gradientUnits="userSpaceOnUse"
       gradientTransform="matrix(1.6797798,0,0,1.6797798,-201.56056,1315.2786)" />
    <linearGradient
       inkscape:collect="always"
       xlink:href="#linearGradient1003"
       id="linearGradient1005-5"
       x1="2052.6287"
       y1="667.63519"
       x2="4486.4517"
       y2="3576.8743"
       gradientUnits="userSpaceOnUse"
       gradientTransform="matrix(0.44444175,0,0,0.44444175,-201.56056,-201.56251)" />
    <linearGradient
       inkscape:collect="always"
       xlink:href="#linearGradient995"
       id="linearGradient989-6"
       x1="1850.9991"
       y1="224.16669"
       x2="1355.4624"
       y2="-434.31378"
       gradientUnits="userSpaceOnUse"
       gradientTransform="matrix(0.44444174,0,0,0.44444174,-53.329564,165.00079)" />
    <linearGradient
       inkscape:collect="always"
       xlink:href="#linearGradient979"
       id="linearGradient981-2"
       x1="1158.45"
       y1="-899.83508"
       x2="1791.7106"
       y2="-37.868637"
       gradientUnits="userSpaceOnUse"
       gradientTransform="matrix(1.6797855,0,0,1.5117931,-201.56057,1365.1598)" />
  </defs>
  <sodipodi:namedview
     id="base"
     pagecolor="#ffffff"
     bordercolor="#666666"
     borderopacity="1.0"
     inkscape:pageopacity="0.0"
     inkscape:pageshadow="2"
     inkscape:zoom="0.125"
     inkscape:cx="2314.1965"
     inkscape:cy="1334.2373"
     inkscape:document-units="mm"
     inkscape:current-layer="layer1"
     showgrid="false"
     inkscape:window-width="1680"
     inkscape:window-height="972"
     inkscape:window-x="1360"
     inkscape:window-y="0"
     inkscape:window-maximized="1" />
  <metadata
     id="metadata7362">
    <rdf:RDF>
      <cc:Work
         rdf:about="">
        <dc:format>image/svg+xml</dc:format>
        <dc:type
           rdf:resource="http://purl.org/dc/dcmitype/StillImage" />
        <dc:title />
      </cc:Work>
    </rdf:RDF>
  </metadata>
  <g
     inkscape:label="Layer 1"
     inkscape:groupmode="layer"
     id="layer1"
     transform="translate(0,183)">
    <path
       style="opacity:1;fill:url(#linearGradient981-2);fill-opacity:1;stroke:#808080;stroke-width:0.20518923;stroke-linecap:round;stroke-miterlimit:4;stroke-dasharray:none;stroke-opacity:1"
       d="M 1.1171875 0.10742188 C 0.85501292 0.16443034 0.58488586 0.21980164 0.40234375 0.40234375 C 0.15344544 0.65124206 0 0.99551561 0 1.3769531 L 0 1812.7969 C 0 1813.1783 0.15344544 1813.5226 0.40234375 1813.7715 C 0.58343143 1813.9526 0.85169192 1814.0067 1.1113281 1814.0645 L 3019.9766 1814.0645 C 3021.9391 1814.0645 3023.5195 1812.486 3023.5195 1810.5234 L 3023.5195 3.6503906 C 3023.5195 1.6878733 3021.9391 0.10742188 3019.9766 0.10742188 L 1.1171875 0.10742188 z "
       id="rect907-2"
       transform="matrix(0.26458333,0,0,0.26458333,0,-183)" />
    <path
       inkscape:connector-curvature="0"
       style="opacity:1;fill:url(#linearGradient989-6);fill-opacity:1;stroke:#808080;stroke-width:0.05722638;stroke-linecap:round;stroke-miterlimit:4;stroke-dasharray:none;stroke-opacity:1"
       d="m 290.1942,286.50961 c -16.03792,4.31257 -30.6962,7.77378 -43.51428,10.30261 h 551.88259 c 0.57697,0 1.04132,-0.46461 1.04132,-1.04157 V -12.142523 a 938.07816,938.07816 0 0 1 -51.50729,55.289313 938.07816,938.07816 0 0 1 -70.44677,61.88571 938.07816,938.07816 0 0 1 -76.27278,54.54379 938.07816,938.07816 0 0 1 -81.33729,46.65643 938.07816,938.07816 0 0 1 -85.58872,38.30348 938.07816,938.07816 0 0 1 -88.98493,29.56723 938.07816,938.07816 0 0 1 -55.27185,12.40618 z"
       id="path870" />
    <path
       style="opacity:1;fill:url(#linearGradient1005-5);fill-opacity:1;stroke:#808080;stroke-width:0.21628867;stroke-linecap:round;stroke-miterlimit:4;stroke-dasharray:none;stroke-opacity:1"
       d="M 0 254.18945 L 0 1812.7969 C -7.4014868e-17 1813.1783 0.15344544 1813.5226 0.40234375 1813.7715 C 0.58343143 1813.9526 0.85169192 1814.0067 1.1113281 1814.0645 L 2251.2578 1814.0645 A 1686.9894 1686.9894 0 0 0 2248.0156 1722.4961 A 1686.9894 1686.9894 0 0 0 2227.6973 1555.0957 A 1686.9894 1686.9894 0 0 0 2190.7656 1390.5605 A 1686.9894 1686.9894 0 0 0 2137.5938 1230.5352 A 1686.9894 1686.9894 0 0 0 2068.7109 1076.6172 A 1686.9894 1686.9894 0 0 0 1984.8047 930.3457 A 1686.9894 1686.9894 0 0 0 1886.7168 793.17969 A 1686.9894 1686.9894 0 0 0 1775.4238 666.49219 A 1686.9894 1686.9894 0 0 0 1652.041 551.54883 A 1686.9894 1686.9894 0 0 0 1517.7988 449.49609 A 1686.9894 1686.9894 0 0 0 1374.0391 361.35547 A 1686.9894 1686.9894 0 0 0 1222.1973 288.00781 A 1686.9894 1686.9894 0 0 0 1063.791 230.18555 A 1686.9894 1686.9894 0 0 0 900.40625 188.4668 A 1686.9894 1686.9894 0 0 0 733.66992 163.26758 A 1686.9894 1686.9894 0 0 0 565.25195 154.83984 A 1686.9894 1686.9894 0 0 0 445.91992 159.06641 A 1686.9894 1686.9894 0 0 0 278.51953 179.38672 A 1686.9894 1686.9894 0 0 0 113.98438 216.31641 A 1686.9894 1686.9894 0 0 0 0 254.18945 z "
       id="path860"
       transform="matrix(0.26458333,0,0,0.26458333,0,-183)" />
    <path
       style="opacity:1;fill:url(#linearGradient997-3);fill-opacity:1;stroke:#808080;stroke-width:0.21628867;stroke-linecap:round;stroke-miterlimit:4;stroke-dasharray:none;stroke-opacity:1"
       d="M 1.1171875 0.10742188 C 0.85501292 0.16443034 0.58488586 0.21980164 0.40234375 0.40234375 C 0.15344544 0.65124206 0 0.99551561 0 1.3769531 L 0 1812.7969 C -7.4014868e-17 1813.1783 0.15344544 1813.5226 0.40234375 1813.7715 C 0.58343143 1813.9526 0.85169192 1814.0067 1.1113281 1814.0645 L 1519.7637 1814.0645 A 1076.0527 1076.0527 0 0 1 1434.6582 1772.9551 A 1076.0527 1076.0527 0 0 1 1342.959 1716.7344 A 1076.0527 1076.0527 0 0 1 1257.332 1651.6406 A 1076.0527 1076.0527 0 0 1 1178.6309 1578.3223 A 1076.0527 1076.0527 0 0 1 1107.6445 1497.5156 A 1076.0527 1076.0527 0 0 1 1045.0781 1410.0234 A 1076.0527 1076.0527 0 0 1 991.55859 1316.7227 A 1076.0527 1076.0527 0 0 1 947.62109 1218.5449 A 1076.0527 1076.0527 0 0 1 913.70508 1116.4727 A 1076.0527 1076.0527 0 0 1 890.14844 1011.5234 A 1076.0527 1076.0527 0 0 1 877.1875 904.74609 A 1076.0527 1076.0527 0 0 1 874.49219 828.62891 A 1076.0527 1076.0527 0 0 1 879.86719 721.20312 A 1076.0527 1076.0527 0 0 1 895.94141 614.85156 A 1076.0527 1076.0527 0 0 1 922.55273 510.63281 A 1076.0527 1076.0527 0 0 1 959.43555 409.59375 A 1076.0527 1076.0527 0 0 1 1006.2188 312.74219 A 1076.0527 1076.0527 0 0 1 1062.4395 221.04492 A 1076.0527 1076.0527 0 0 1 1127.5352 135.41797 A 1076.0527 1076.0527 0 0 1 1200.8516 56.716797 A 1076.0527 1076.0527 0 0 1 1265.291 0.10742188 L 1.1171875 0.10742188 z "
       id="path865"
       transform="matrix(0.26458333,0,0,0.26458333,0,-183)" />
  </g>
</svg>
